<svg width="24" height="24" viewBox="0 0 24 24" fill="none" xmlns="http://www.w3.org/2000/svg">
<path d="M15.7957 3.70508C15.9006 3.8096 15.9838 3.93379 16.0406 4.07053C16.0974 4.20728 16.1266 4.35389 16.1266 4.50196C16.1266 4.65002 16.0974 4.79663 16.0406 4.93337C15.9838 5.07012 15.9006 5.19431 15.7957 5.29883L9.09354 12.001L15.7957 18.7051C16.0071 18.9164 16.1258 19.2031 16.1258 19.502C16.1258 19.8008 16.0071 20.0875 15.7957 20.2988C15.5844 20.5102 15.2977 20.6289 14.9989 20.6289C14.7 20.6289 14.4133 20.5102 14.202 20.2988L6.70198 12.7988C6.5971 12.6943 6.51388 12.5701 6.4571 12.4334C6.40032 12.2966 6.37109 12.15 6.37109 12.002C6.37109 11.8539 6.40032 11.7073 6.4571 11.5705C6.51388 11.4338 6.5971 11.3096 6.70198 11.2051L14.202 3.70508C14.3065 3.6002 14.4307 3.51698 14.5674 3.4602C14.7042 3.40342 14.8508 3.37419 14.9989 3.37419C15.1469 3.37419 15.2935 3.40342 15.4303 3.4602C15.567 3.51698 15.6912 3.6002 15.7957 3.70508Z" fill="#0B142F"/>
</svg>
