<svg width="24" height="24" viewBox="0 0 24 24" fill="none" xmlns="http://www.w3.org/2000/svg">
<path d="M8.20427 20.2949C8.09939 20.1904 8.01617 20.0662 7.95939 19.9295C7.90261 19.7927 7.87338 19.6461 7.87338 19.498C7.87338 19.35 7.90261 19.2034 7.95939 19.0666C8.01617 18.9299 8.09939 18.8057 8.20427 18.7012L14.9065 11.999L8.20427 5.29492C7.99292 5.08358 7.87419 4.79693 7.87419 4.49805C7.87419 4.19916 7.99292 3.91251 8.20427 3.70117C8.41561 3.48983 8.70226 3.37109 9.00114 3.37109C9.30003 3.37109 9.58667 3.48983 9.79802 3.70117L17.298 11.2012C17.4029 11.3057 17.4861 11.4299 17.5429 11.5666C17.5997 11.7034 17.6289 11.85 17.6289 11.998C17.6289 12.1461 17.5997 12.2927 17.5429 12.4295C17.4861 12.5662 17.4029 12.6904 17.298 12.7949L9.79802 20.2949C9.6935 20.3998 9.56931 20.483 9.43256 20.5398C9.29582 20.5966 9.14921 20.6258 9.00114 20.6258C8.85308 20.6258 8.70647 20.5966 8.56972 20.5398C8.43298 20.483 8.30879 20.3998 8.20427 20.2949Z" fill="#0B142F"/>
</svg>
