<svg width="33" height="32" viewBox="0 0 33 32" fill="none" xmlns="http://www.w3.org/2000/svg">
<path d="M26.5 3.5H24V3C24 2.60218 23.842 2.22064 23.5607 1.93934C23.2794 1.65804 22.8978 1.5 22.5 1.5C22.1022 1.5 21.7206 1.65804 21.4393 1.93934C21.158 2.22064 21 2.60218 21 3V3.5H12V3C12 2.60218 11.842 2.22064 11.5607 1.93934C11.2794 1.65804 10.8978 1.5 10.5 1.5C10.1022 1.5 9.72064 1.65804 9.43934 1.93934C9.15804 2.22064 9 2.60218 9 3V3.5H6.5C5.83696 3.5 5.20107 3.76339 4.73223 4.23223C4.26339 4.70107 4 5.33696 4 6V26C4 26.663 4.26339 27.2989 4.73223 27.7678C5.20107 28.2366 5.83696 28.5 6.5 28.5H26.5C27.163 28.5 27.7989 28.2366 28.2678 27.7678C28.7366 27.2989 29 26.663 29 26V6C29 5.33696 28.7366 4.70107 28.2678 4.23223C27.7989 3.76339 27.163 3.5 26.5 3.5ZM9 6.5C9 6.89782 9.15804 7.27936 9.43934 7.56066C9.72064 7.84196 10.1022 8 10.5 8C10.8978 8 11.2794 7.84196 11.5607 7.56066C11.842 7.27936 12 6.89782 12 6.5H21C21 6.89782 21.158 7.27936 21.4393 7.56066C21.7206 7.84196 22.1022 8 22.5 8C22.8978 8 23.2794 7.84196 23.5607 7.56066C23.842 7.27936 24 6.89782 24 6.5H26V9.5H7V6.5H9ZM7 25.5V12.5H26V25.5H7ZM14.5 15.5V22.5C14.5 22.8978 14.342 23.2794 14.0607 23.5607C13.7794 23.842 13.3978 24 13 24C12.6022 24 12.2206 23.842 11.9393 23.5607C11.658 23.2794 11.5 22.8978 11.5 22.5V17.915C11.1431 18.0321 10.7552 18.0111 10.4131 17.856C10.0709 17.701 9.79941 17.4232 9.65222 17.0776C9.50502 16.732 9.49286 16.3437 9.61813 15.9896C9.7434 15.6354 9.99698 15.3412 10.3287 15.165L12.3287 14.165C12.557 14.0508 12.8105 13.9967 13.0655 14.0078C13.3204 14.019 13.5683 14.095 13.7857 14.2286C14.003 14.3623 14.1827 14.5492 14.3077 14.7717C14.4327 14.9941 14.4989 15.2448 14.5 15.5ZM22.1863 19.735L20.9875 21H21.5C21.8978 21 22.2794 21.158 22.5607 21.4393C22.842 21.7206 23 22.1022 23 22.5C23 22.8978 22.842 23.2794 22.5607 23.5607C22.2794 23.842 21.8978 24 21.5 24H17.5C17.2069 23.9999 16.9202 23.9139 16.6754 23.7527C16.4306 23.5914 16.2384 23.362 16.1226 23.0927C16.0068 22.8234 15.9724 22.5261 16.0237 22.2375C16.075 21.9489 16.2097 21.6816 16.4113 21.4688L19.9312 17.75C19.9757 17.6742 19.9995 17.5879 20 17.5C20.0003 17.3897 19.9641 17.2824 19.897 17.1948C19.83 17.1072 19.7359 17.0443 19.6293 17.0157C19.5228 16.9872 19.4098 16.9947 19.3079 17.0371C19.2061 17.0795 19.1211 17.1543 19.0662 17.25C18.8635 17.5868 18.5367 17.8305 18.156 17.9287C17.7754 18.0269 17.3715 17.9718 17.0311 17.7753C16.6907 17.5787 16.441 17.2564 16.3359 16.8776C16.2307 16.4988 16.2784 16.0939 16.4688 15.75C16.8539 15.0827 17.4486 14.5611 18.1604 14.2662C18.8723 13.9713 19.6616 13.9196 20.4058 14.119C21.1501 14.3184 21.8078 14.7578 22.2768 15.3692C22.7459 15.9805 23.0001 16.7295 23 17.5C23.0023 18.2608 22.7546 19.0012 22.295 19.6075C22.2615 19.6522 22.2251 19.6948 22.1863 19.735Z" fill="#D5B93C"/>
</svg>
