<svg width="72" height="72" viewBox="0 0 72 72" fill="none" xmlns="http://www.w3.org/2000/svg">
<rect x="1" y="1" width="70" height="70" rx="35" stroke="#203A87" stroke-width="2"/>
<path d="M32.204 44.2949C32.0991 44.1904 32.0159 44.0662 31.9591 43.9295C31.9024 43.7927 31.8731 43.6461 31.8731 43.498C31.8731 43.35 31.9024 43.2034 31.9591 43.0666C32.0159 42.9299 32.0991 42.8057 32.204 42.7012L38.9062 35.999L32.204 29.2949C31.9927 29.0836 31.8739 28.7969 31.8739 28.498C31.8739 28.1992 31.9927 27.9125 32.204 27.7012C32.4154 27.4898 32.702 27.3711 33.0009 27.3711C33.2998 27.3711 33.5864 27.4898 33.7978 27.7012L41.2978 35.2012C41.4027 35.3057 41.4859 35.4299 41.5427 35.5666C41.5994 35.7034 41.6287 35.85 41.6287 35.998C41.6287 36.1461 41.5994 36.2927 41.5427 36.4295C41.4859 36.5662 41.4027 36.6904 41.2978 36.7949L33.7978 44.2949C33.6933 44.3998 33.5691 44.483 33.4323 44.5398C33.2956 44.5966 33.149 44.6258 33.0009 44.6258C32.8528 44.6258 32.7062 44.5966 32.5695 44.5398C32.4327 44.483 32.3085 44.3998 32.204 44.2949Z" fill="#0B142F"/>
</svg>
