<svg width="120" height="120" viewBox="0 0 120 120" fill="none" xmlns="http://www.w3.org/2000/svg">
<path d="M108.75 71.25C108.75 72.7418 108.157 74.1726 107.102 75.2275C106.048 76.2824 104.617 76.875 103.125 76.875H99.375V97.5C99.375 98.9918 98.7824 100.423 97.7275 101.477C96.6726 102.532 95.2418 103.125 93.75 103.125C92.2582 103.125 90.8274 102.532 89.7725 101.477C88.7176 100.423 88.125 98.9918 88.125 97.5V76.875H84.375C82.8832 76.875 81.4524 76.2824 80.3975 75.2275C79.3426 74.1726 78.75 72.7418 78.75 71.25C78.75 69.7582 79.3426 68.3274 80.3975 67.2725C81.4524 66.2176 82.8832 65.625 84.375 65.625H103.125C104.617 65.625 106.048 66.2176 107.102 67.2725C108.157 68.3274 108.75 69.7582 108.75 71.25ZM43.125 80.625C43.125 84.6032 41.5446 88.4186 38.7316 91.2316C35.9186 94.0446 32.1032 95.625 28.125 95.625H26.25V97.5C26.25 98.9918 25.6574 100.423 24.6025 101.477C23.5476 102.532 22.1168 103.125 20.625 103.125C19.1332 103.125 17.7024 102.532 16.6475 101.477C15.5926 100.423 15 98.9918 15 97.5V71.25C15 69.7582 15.5926 68.3274 16.6475 67.2725C17.7024 66.2176 19.1332 65.625 20.625 65.625H28.125C32.1032 65.625 35.9186 67.2054 38.7316 70.0184C41.5446 72.8314 43.125 76.6468 43.125 80.625ZM31.875 80.625C31.875 79.6304 31.4799 78.6766 30.7766 77.9733C30.0734 77.2701 29.1196 76.875 28.125 76.875H26.25V84.375H28.125C29.1196 84.375 30.0734 83.9799 30.7766 83.2767C31.4799 82.5734 31.875 81.6196 31.875 80.625ZM76.875 80.625C76.875 84.6032 75.2946 88.4186 72.4816 91.2316C69.6686 94.0446 65.8532 95.625 61.875 95.625H60V97.5C60 98.9918 59.4074 100.423 58.3525 101.477C57.2976 102.532 55.8668 103.125 54.375 103.125C52.8832 103.125 51.4524 102.532 50.3975 101.477C49.3426 100.423 48.75 98.9918 48.75 97.5V71.25C48.75 69.7582 49.3426 68.3274 50.3975 67.2725C51.4524 66.2176 52.8832 65.625 54.375 65.625H61.875C65.8532 65.625 69.6686 67.2054 72.4816 70.0184C75.2946 72.8314 76.875 76.6468 76.875 80.625ZM65.625 80.625C65.625 79.6304 65.2299 78.6766 64.5267 77.9733C63.8234 77.2701 62.8696 76.875 61.875 76.875H60V84.375H61.875C62.8696 84.375 63.8234 83.9799 64.5267 83.2767C65.2299 82.5734 65.625 81.6196 65.625 80.625ZM16.875 50.625V18.75C16.875 16.2636 17.8627 13.879 19.6209 12.1209C21.379 10.3627 23.7636 9.375 26.25 9.375H71.25C71.9892 9.37503 72.7212 9.52078 73.4041 9.8039C74.0869 10.087 74.7073 10.502 75.2297 11.025L101.48 37.275C102.533 38.3296 103.125 39.7593 103.125 41.25V50.625C103.125 52.1168 102.532 53.5476 101.477 54.6025C100.423 55.6574 98.9918 56.25 97.5 56.25C96.0082 56.25 94.5774 55.6574 93.5225 54.6025C92.4676 53.5476 91.875 52.1168 91.875 50.625V48.75H69.375C67.8832 48.75 66.4524 48.1574 65.3975 47.1025C64.3426 46.0476 63.75 44.6168 63.75 43.125V20.625H28.125V50.625C28.125 52.1168 27.5324 53.5476 26.4775 54.6025C25.4226 55.6574 23.9918 56.25 22.5 56.25C21.0082 56.25 19.5774 55.6574 18.5225 54.6025C17.4676 53.5476 16.875 52.1168 16.875 50.625ZM75 37.5H85.7812L75 26.7188V37.5Z" fill="#0B142F"/>
</svg>
