<svg width="120" height="120" viewBox="0 0 120 120" fill="none" xmlns="http://www.w3.org/2000/svg">
<path d="M93.75 76.875V80.625H99.375C100.867 80.625 102.298 81.2176 103.352 82.2725C104.407 83.3274 105 84.7582 105 86.25C105 87.7418 104.407 89.1726 103.352 90.2275C102.298 91.2824 100.867 91.875 99.375 91.875H93.75V97.5C93.75 98.9918 93.1574 100.423 92.1025 101.477C91.0476 102.532 89.6168 103.125 88.125 103.125C86.6332 103.125 85.2024 102.532 84.1475 101.477C83.0926 100.423 82.5 98.9918 82.5 97.5V71.25C82.5 69.7582 83.0926 68.3274 84.1475 67.2725C85.2024 66.2176 86.6332 65.625 88.125 65.625H103.125C104.617 65.625 106.048 66.2176 107.102 67.2725C108.157 68.3274 108.75 69.7582 108.75 71.25C108.75 72.7418 108.157 74.1726 107.102 75.2275C106.048 76.2824 104.617 76.875 103.125 76.875H93.75ZM43.125 80.625C43.125 84.6032 41.5446 88.4186 38.7316 91.2316C35.9186 94.0446 32.1032 95.625 28.125 95.625H26.25V97.5C26.25 98.9918 25.6574 100.423 24.6025 101.477C23.5476 102.532 22.1168 103.125 20.625 103.125C19.1332 103.125 17.7024 102.532 16.6475 101.477C15.5926 100.423 15 98.9918 15 97.5V71.25C15 69.7582 15.5926 68.3274 16.6475 67.2725C17.7024 66.2176 19.1332 65.625 20.625 65.625H28.125C32.1032 65.625 35.9186 67.2054 38.7316 70.0184C41.5446 72.8314 43.125 76.6468 43.125 80.625ZM31.875 80.625C31.875 79.6304 31.4799 78.6766 30.7766 77.9733C30.0734 77.2701 29.1196 76.875 28.125 76.875H26.25V84.375H28.125C29.1196 84.375 30.0734 83.9799 30.7766 83.2767C31.4799 82.5734 31.875 81.6196 31.875 80.625ZM78.75 84.375C78.75 89.3478 76.7746 94.1169 73.2583 97.6333C69.7419 101.15 64.9728 103.125 60 103.125H52.5C51.0082 103.125 49.5774 102.532 48.5225 101.477C47.4676 100.423 46.875 98.9918 46.875 97.5V71.25C46.875 69.7582 47.4676 68.3274 48.5225 67.2725C49.5774 66.2176 51.0082 65.625 52.5 65.625H60C64.9728 65.625 69.7419 67.6004 73.2583 71.1167C76.7746 74.6331 78.75 79.4022 78.75 84.375ZM67.5 84.375C67.5 82.3859 66.7098 80.4782 65.3033 79.0717C63.8968 77.6652 61.9891 76.875 60 76.875H58.125V91.875H60C61.9891 91.875 63.8968 91.0848 65.3033 89.6783C66.7098 88.2718 67.5 86.3641 67.5 84.375ZM16.875 50.625V18.75C16.875 16.2636 17.8627 13.879 19.6209 12.1209C21.379 10.3627 23.7636 9.375 26.25 9.375H71.25C71.9892 9.37503 72.7212 9.52078 73.4041 9.8039C74.0869 10.087 74.7073 10.502 75.2297 11.025L101.48 37.275C102.533 38.3296 103.125 39.7593 103.125 41.25V50.625C103.125 52.1168 102.532 53.5476 101.477 54.6025C100.423 55.6574 98.9918 56.25 97.5 56.25C96.0082 56.25 94.5774 55.6574 93.5225 54.6025C92.4676 53.5476 91.875 52.1168 91.875 50.625V48.75H69.375C67.8832 48.75 66.4524 48.1574 65.3975 47.1025C64.3426 46.0476 63.75 44.6168 63.75 43.125V20.625H28.125V50.625C28.125 52.1168 27.5324 53.5476 26.4775 54.6025C25.4226 55.6574 23.9918 56.25 22.5 56.25C21.0082 56.25 19.5774 55.6574 18.5225 54.6025C17.4676 53.5476 16.875 52.1168 16.875 50.625ZM75 26.7188V37.5H85.7812L75 26.7188Z" fill="#0B142F"/>
</svg>
