<svg width="24" height="24" viewBox="0 0 24 24" fill="none" xmlns="http://www.w3.org/2000/svg">
<path d="M11.625 5.5C10.8092 5.5 10.0116 5.74193 9.33327 6.19519C8.65492 6.64845 8.12621 7.29269 7.814 8.04643C7.50179 8.80018 7.4201 9.62958 7.57926 10.4297C7.73843 11.2299 8.13129 11.9649 8.70818 12.5418C9.28508 13.1187 10.0201 13.5116 10.8203 13.6707C11.6204 13.8299 12.4498 13.7482 13.2036 13.436C13.9573 13.1238 14.6016 12.5951 15.0548 11.9167C15.5081 11.2384 15.75 10.4408 15.75 9.625C15.7488 8.53136 15.3138 7.48287 14.5404 6.70955C13.7671 5.93624 12.7186 5.50124 11.625 5.5ZM11.625 11.5C11.2542 11.5 10.8916 11.39 10.5833 11.184C10.275 10.978 10.0346 10.6851 9.89273 10.3425C9.75081 9.99992 9.71368 9.62292 9.78603 9.2592C9.85837 8.89549 10.037 8.5614 10.2992 8.29917C10.5614 8.03695 10.8955 7.85837 11.2592 7.78603C11.6229 7.71368 11.9999 7.75081 12.3425 7.89272C12.6851 8.03464 12.978 8.27496 13.184 8.58331C13.39 8.89165 13.5 9.25416 13.5 9.625C13.5 10.1223 13.3025 10.5992 12.9508 10.9508C12.5992 11.3025 12.1223 11.5 11.625 11.5ZM11.625 1C9.33827 1.00248 7.14591 1.91198 5.52894 3.52894C3.91198 5.14591 3.00248 7.33827 3 9.625C3 16.8775 10.6538 22.3187 10.98 22.5466C11.1691 22.6789 11.3942 22.7498 11.625 22.7498C11.8558 22.7498 12.0809 22.6789 12.27 22.5466C13.7196 21.4782 15.0459 20.2519 16.2244 18.8903C18.8578 15.8659 20.25 12.6597 20.25 9.625C20.2475 7.33827 19.338 5.14591 17.7211 3.52894C16.1041 1.91198 13.9117 1.00248 11.625 1ZM14.5594 17.3791C13.6655 18.4058 12.6836 19.3526 11.625 20.2084C10.5664 19.3526 9.5845 18.4058 8.69062 17.3791C7.125 15.5659 5.25 12.7478 5.25 9.625C5.25 7.93424 5.92165 6.31274 7.11719 5.11719C8.31274 3.92165 9.93425 3.25 11.625 3.25C13.3158 3.25 14.9373 3.92165 16.1328 5.11719C17.3284 6.31274 18 7.93424 18 9.625C18 12.7478 16.125 15.5659 14.5594 17.3791Z" fill="#0B142F"/>
</svg>
