<svg width="120" height="120" viewBox="0 0 120 120" fill="none" xmlns="http://www.w3.org/2000/svg">
<path d="M93.75 9.375H33.75C31.2636 9.375 28.879 10.3627 27.1209 12.1209C25.3627 13.879 24.375 16.2636 24.375 18.75V26.25H16.875C14.3886 26.25 12.004 27.2377 10.2459 28.9959C8.48772 30.754 7.5 33.1386 7.5 35.625V84.375C7.5 86.8614 8.48772 89.246 10.2459 91.0041C12.004 92.7623 14.3886 93.75 16.875 93.75H24.375V101.25C24.375 103.736 25.3627 106.121 27.1209 107.879C28.879 109.637 31.2636 110.625 33.75 110.625H93.75C96.2364 110.625 98.621 109.637 100.379 107.879C102.137 106.121 103.125 103.736 103.125 101.25V18.75C103.125 16.2636 102.137 13.879 100.379 12.1209C98.621 10.3627 96.2364 9.375 93.75 9.375ZM78.75 50.625H91.875V69.375H78.75V50.625ZM35.625 20.625H91.875V39.375H78.75V35.625C78.75 33.1386 77.7623 30.754 76.0041 28.9959C74.246 27.2377 71.8614 26.25 69.375 26.25H35.625V20.625ZM18.75 37.5H67.5V82.5H18.75V37.5ZM35.625 99.375V93.75H69.375C71.8614 93.75 74.246 92.7623 76.0041 91.0041C77.7623 89.246 78.75 86.8614 78.75 84.375V80.625H91.875V99.375H35.625ZM30.1688 72.6141L24.5438 50.1141C24.3502 49.3928 24.3023 48.6402 24.4027 47.9002C24.5031 47.1601 24.7499 46.4475 25.1286 45.8039C25.5073 45.1602 26.0104 44.5984 26.6085 44.1513C27.2067 43.7041 27.8879 43.3805 28.6124 43.1994C29.3369 43.0183 30.0902 42.9832 30.8284 43.0963C31.5665 43.2094 32.2748 43.4684 32.9119 43.8581C33.5489 44.2477 34.102 44.7604 34.5389 45.3661C34.9757 45.9718 35.2876 46.6584 35.4562 47.3859L37.3922 55.1344L38.0953 53.7281C38.5628 52.7946 39.2809 52.0095 40.1692 51.4609C41.0575 50.9122 42.0809 50.6216 43.125 50.6216C44.1691 50.6216 45.1925 50.9122 46.0808 51.4609C46.9691 52.0095 47.6872 52.7946 48.1547 53.7281L48.8578 55.1344L50.7938 47.3859C51.176 45.9612 52.1026 44.7436 53.374 43.9955C54.6454 43.2474 56.1598 43.0287 57.5909 43.3865C59.022 43.7443 60.2553 44.6499 61.025 45.9083C61.7948 47.1666 62.0394 48.677 61.7062 50.1141L56.0812 72.6141C55.8011 73.7274 55.187 74.7283 54.3214 75.4824C53.4558 76.2365 52.3802 76.7078 51.2391 76.8328C51.0353 76.8584 50.8303 76.8725 50.625 76.875C49.5808 76.8749 48.5572 76.5841 47.6689 76.0352C46.7806 75.4863 46.0626 74.701 45.5953 73.7672L43.125 68.8266L40.6547 73.7672C40.1402 74.7943 39.3235 75.6394 38.3145 76.1886C37.3054 76.7378 36.1524 76.9649 35.0105 76.8393C33.8685 76.7137 32.7924 76.2415 31.9269 75.4861C31.0613 74.7308 30.4478 73.7285 30.1688 72.6141Z" fill="#0B142F"/>
</svg>
