<svg width="30" height="29" viewBox="0 0 30 29" fill="none" xmlns="http://www.w3.org/2000/svg">
<path d="M12.5 9C12.5 8.50555 12.6466 8.0222 12.9213 7.61107C13.196 7.19995 13.5865 6.87952 14.0433 6.6903C14.5001 6.50108 15.0028 6.45157 15.4877 6.54804C15.9727 6.6445 16.4181 6.8826 16.7678 7.23223C17.1174 7.58186 17.3555 8.02732 17.452 8.51227C17.5484 8.99723 17.4989 9.49989 17.3097 9.95671C17.1205 10.4135 16.8 10.804 16.3889 11.0787C15.9778 11.3534 15.4945 11.5 15 11.5C14.337 11.5 13.7011 11.2366 13.2322 10.7678C12.7634 10.2989 12.5 9.66304 12.5 9ZM6.5 9C6.5 6.74566 7.39553 4.58365 8.98959 2.98959C10.5837 1.39553 12.7457 0.5 15 0.5C17.2543 0.5 19.4163 1.39553 21.0104 2.98959C22.6045 4.58365 23.5 6.74566 23.5 9C23.5 16.7812 16.0612 21.125 15.7437 21.3025C15.5172 21.4318 15.2609 21.4999 15 21.4999C14.7391 21.4999 14.4828 21.4318 14.2563 21.3025C13.9388 21.125 6.5 16.7812 6.5 9ZM9.5 9C9.5 13.775 13.3387 17.025 15 18.205C16.6513 17.0187 20.5 13.75 20.5 9C20.5 7.54131 19.9205 6.14236 18.8891 5.11091C17.8576 4.07946 16.4587 3.5 15 3.5C13.5413 3.5 12.1424 4.07946 11.1109 5.11091C10.0795 6.14236 9.5 7.54131 9.5 9ZM25.0713 17.2C24.8887 17.1225 24.6926 17.082 24.4943 17.0809C24.296 17.0797 24.0994 17.1178 23.9159 17.1931C23.7324 17.2684 23.5657 17.3793 23.4254 17.5195C23.2851 17.6596 23.1739 17.8262 23.0984 18.0096C23.0229 18.1929 22.9844 18.3895 22.9854 18.5878C22.9863 18.7861 23.0265 18.9822 23.1037 19.1649C23.181 19.3476 23.2936 19.5131 23.4352 19.652C23.5769 19.7908 23.7446 19.9002 23.9287 19.9737C25.695 20.7013 26.5 21.5338 26.5 22C26.5 22.5 25.6087 23.3838 23.6537 24.135C21.3662 25.01 18.2925 25.5 15 25.5C11.7075 25.5 8.63375 25.015 6.34625 24.135C4.39 23.3838 3.5 22.5 3.5 22C3.5 21.5338 4.305 20.7013 6.07125 19.9737C6.25541 19.9002 6.42315 19.7908 6.56476 19.652C6.70637 19.5131 6.81905 19.3476 6.89627 19.1649C6.97349 18.9822 7.01372 18.7861 7.01464 18.5878C7.01555 18.3895 6.97714 18.1929 6.90161 18.0096C6.82608 17.8262 6.71493 17.6596 6.57461 17.5195C6.43429 17.3793 6.26757 17.2684 6.0841 17.1931C5.90063 17.1178 5.70405 17.0797 5.50574 17.0809C5.30742 17.082 5.11131 17.1225 4.92875 17.2C2.90875 18.0312 0.5 19.5387 0.5 22C0.5 26.2675 7.795 28.5 15 28.5C18.6525 28.5 22.1075 27.945 24.7313 26.935C26.5125 26.25 29.5 24.6987 29.5 22C29.5 19.5387 27.0913 18.0312 25.0713 17.2Z" fill="#D5B93C"/>
</svg>
